<svg xmlns="http://www.w3.org/2000/svg" width="1440" height="810" viewBox="0 0 1440 810">
<defs><linearGradient id="sky" x2="0" y2="1"><stop stop-color="#11182b"/><stop offset=".65" stop-color="#383550"/><stop offset="1" stop-color="#734957"/></linearGradient><linearGradient id="floor" x2="0" y2="1"><stop stop-color="#3c3c4c"/><stop offset="1" stop-color="#252733"/></linearGradient><radialGradient id="moon"><stop stop-color="#b9c9df" stop-opacity=".17"/><stop offset="1" stop-color="#b9c9df" stop-opacity="0"/></radialGradient><pattern id="windows" width="25" height="34" patternUnits="userSpaceOnUse"><rect x="8" y="8" width="5" height="10" fill="#cea285" opacity=".36"/><rect x="18" y="23" width="4" height="7" fill="#9aaec3" opacity=".27"/></pattern><pattern id="fence" width="35" height="35" patternUnits="userSpaceOnUse"><path d="M0 0L35 35M35 0L0 35" fill="none" stroke="#768292" stroke-opacity=".22" stroke-width="1"/></pattern></defs>
<rect width="1440" height="810" fill="url(#sky)"/><ellipse cx="435" cy="232" rx="245" ry="193" fill="url(#moon)"/><circle cx="435" cy="232" r="52" fill="#c6c9d2"/><circle cx="455" cy="217" r="45" fill="#25293c"/><path d="M31 214Q208 181 341 211T670 213M750 330Q983 294 1153 321T1513 327" stroke="#9b91a1" stroke-opacity=".08" stroke-width="23" fill="none"/>
<path d="M0 467H70V392H139V424H181V353H253V466H311V392H398V445H467V349H533V427H577V286H637V405H697V442H768V371H825V449H890V326H977V391H1030V469H1101V406H1179V348H1257V427H1337V364H1440V656H0Z" fill="#1d2536"/><path d="M0 467H70V392H139V424H181V353H253V466H311V392H398V445H467V349H533V427H577V286H637V405H697V442H768V371H825V449H890V326H977V391H1030V469H1101V406H1179V348H1257V427H1337V364H1440V656H0Z" fill="url(#windows)"/>
<path d="M585 288V255M614 288V213M942 326V251M1342 365V291" stroke="#242638" stroke-width="4"/><circle cx="614" cy="210" r="3" fill="#de8182"/><circle cx="942" cy="249" r="3" fill="#de8182"/>
<path d="M0 509H1440V616H0Z" fill="#202735"/><path d="M0 514H1440" stroke="#7a7886" stroke-width="5"/><rect y="376" width="1440" height="170" fill="url(#fence)"/><path d="M0 379H1440M0 546H1440M107 376V616M343 376V616M581 376V616M820 376V616M1058 376V616M1296 376V616" stroke="#495565" stroke-width="5"/><path d="M0 379H1440" stroke="#9a95a3" stroke-opacity=".35" stroke-width="2"/>
<g transform="translate(91 352)"><path d="M0 0H99V226H0Z" fill="#333849" stroke="#78808c" stroke-width="2"/><path d="M13 14H86V163H13Z" fill="#1b2636"/><path d="M23 30H76M23 44H76M23 58H76M23 72H76M23 86H76M23 100H76M23 114H76M23 128H76" stroke="#4b586d" stroke-width="6"/><path d="M0 173H99" stroke="#81818c" stroke-width="2"/><circle cx="49" cy="198" r="7" fill="#87947c"/></g>
<g transform="translate(1181 403)"><rect width="195" height="172" rx="4" fill="#3d4050" stroke="#84828d" stroke-width="2"/><rect x="14" y="14" width="166" height="86" rx="4" fill="#212c3c"/><circle cx="56" cy="58" r="33" fill="#161e2c" stroke="#586576" stroke-width="3"/><circle cx="138" cy="58" r="33" fill="#161e2c" stroke="#586576" stroke-width="3"/><path d="M56 30V86M29 58H83M138 30V86M111 58H165" stroke="#4d5968" stroke-width="4"/><path d="M17 117H178M17 130H178M17 143H178" stroke="#69737f" stroke-width="3"/><rect x="23" y="172" width="17" height="29" fill="#232d39"/><rect x="155" y="172" width="17" height="29" fill="#232d39"/></g>
<rect y="614" width="1440" height="196" fill="url(#floor)"/><path d="M0 618H1440M0 686H1440M0 781H1440M295 614L171 810M581 614L541 810M863 614L903 810M1149 614L1273 810" stroke="#888591" stroke-opacity=".18" stroke-width="2"/><path d="M0 634H1440" stroke="#151e2c" stroke-width="8"/><path d="M324 754L415 696H1025L1116 754Z" fill="none" stroke="#c4b69a" stroke-opacity=".2" stroke-width="5"/><path d="M494 798L573 744M954 798L875 744" stroke="#acaa9d" stroke-opacity=".18" stroke-width="4"/><path d="M230 659L314 645 325 650 248 665M1079 677L1178 679 1197 685 1088 685" fill="#c3b3bb" opacity=".09"/>
</svg>
